<svg width="40" height="40" viewBox="0 0 40 40" fill="none" xmlns="http://www.w3.org/2000/svg">
<path fill-rule="evenodd" clip-rule="evenodd" d="M14.2529 15.5413C13.546 15.8967 12.883 16.3695 12.2929 16.9596L2.95956 26.2929C-0.00829771 29.2608 -0.00829461 34.0726 2.95956 37.0404C5.92741 40.0083 10.7393 40.0083 13.7071 37.0404L23.0404 27.7071C26.0083 24.7393 26.0083 19.9274 23.0404 16.9596C21.7529 15.672 20.1183 14.9431 18.4378 14.7727C17.9933 15.3657 17.704 16.0382 17.5697 16.7345C19.0349 16.7093 20.5082 17.2557 21.6262 18.3738C23.813 20.5606 23.813 24.1061 21.6262 26.2929L12.2929 35.6262C10.1061 37.813 6.56058 37.813 4.37377 35.6262C2.18697 33.4394 2.18697 29.8939 4.37377 27.7071L13.7071 18.3738C13.8006 18.2802 13.8967 18.1907 13.995 18.1051C13.9479 17.2453 14.0338 16.3795 14.2529 15.5413Z" fill="white"/>
<path fill-rule="evenodd" clip-rule="evenodd" d="M27.7071 4.37378C29.8939 2.18697 33.4394 2.18697 35.6262 4.37378C37.813 6.56058 37.813 10.1061 35.6262 12.2929L26.2929 21.6262C26.1928 21.7263 26.0899 21.8218 25.9843 21.9128C26.0253 22.7726 25.9354 23.6374 25.7149 24.4749C26.4339 24.1176 27.108 23.6395 27.7071 23.0404L37.0404 13.7071C40.0083 10.7393 40.0083 5.92742 37.0404 2.95956C34.0726 -0.00829188 29.2607 -0.00828896 26.2929 2.95956L16.9596 12.2929C13.9917 15.2608 13.9917 20.0726 16.9596 23.0404C18.2435 24.3244 19.8726 25.0529 21.5482 25.2259C21.9826 24.6305 22.2673 23.9599 22.4025 23.2659C20.9464 23.2838 19.4848 22.7372 18.3738 21.6262C16.187 19.4394 16.187 15.8939 18.3738 13.7071L27.7071 4.37378Z" fill="white"/>
</svg>
