<svg width="40" height="39" viewBox="0 0 40 39" fill="none" xmlns="http://www.w3.org/2000/svg">
<path d="M33 33.763V38H1V34.1637C1 31.8715 1.81312 29.7561 3.51013 28.5866C5.18537 27.4322 7.07271 26.5116 8.78121 26.0109C10.0287 25.6454 11.2363 24.7547 12.117 23.8256C12.565 23.353 12.9576 22.8402 13.2442 22.3324C13.5188 21.8457 13.75 21.2691 13.75 20.6923C13.75 20.2927 13.607 19.9447 13.4651 19.6825C13.3198 19.4141 13.1289 19.152 12.9386 18.9098C12.779 18.7067 12.5971 18.4895 12.4154 18.2726C12.3792 18.2294 12.3431 18.1862 12.3071 18.1431C12.0849 17.8773 11.8575 17.6017 11.6325 17.3068C10.7344 16.1299 9.925 14.7088 9.925 12.8462C9.925 9.05114 12.8655 6 17 6C21.1345 6 24.075 9.05114 24.075 12.8462C24.075 14.7088 23.2656 16.1299 22.3675 17.3068C22.1425 17.6017 21.9151 17.8773 21.6929 18.1431C21.6569 18.1862 21.6207 18.2294 21.5845 18.2726C21.4028 18.4896 21.221 18.7067 21.0614 18.9098C20.8711 19.152 20.6802 19.4141 20.5349 19.6825C20.393 19.9447 20.25 20.2927 20.25 20.6923C20.25 21.6367 20.7092 22.7791 21.5162 23.7523C22.3453 24.7521 23.5951 25.6428 25.2778 26.0263C27.5326 26.5402 29.4091 27.4805 30.915 28.6393C32.36 29.7513 33 31.6745 33 33.763Z" stroke="white" stroke-width="2"/>
<path fill-rule="evenodd" clip-rule="evenodd" d="M40 28.763V32V34H38H34V33.763C34 33.1719 33.9527 32.5786 33.8506 32H38V28.763C38 26.8402 37.4086 25.281 36.3051 24.4318C34.9118 23.3596 33.1672 22.4826 31.0556 22.0013C29.1422 21.5652 27.7051 20.5468 26.7464 19.3906C25.8319 18.2878 25.25 16.9272 25.25 15.6923C25.25 15.0566 25.4762 14.5377 25.6554 14.2066C25.8414 13.8629 26.0738 13.5481 26.2751 13.2919C26.4453 13.0753 26.6395 12.8435 26.821 12.6268L26.821 12.6268L26.9256 12.5019C27.1459 12.2383 27.3615 11.9767 27.5725 11.7002C28.4124 10.5995 29.075 9.39202 29.075 7.84615C29.075 4.6151 26.5939 2 23 2C20.546 2 18.6108 3.2193 17.6301 5.02142C17.4229 5.00722 17.2128 5 17 5C16.4437 5 15.9054 5.04938 15.3888 5.14373C16.4699 2.13106 19.3454 0 23 0C27.675 0 31.075 3.48718 31.075 7.84615C31.075 10.6625 29.4782 12.5691 28.3481 13.9185C27.729 14.6576 27.25 15.2295 27.25 15.6923C27.25 17 28.5958 19.3894 31.5 20.0513C33.8981 20.5979 35.9063 21.6013 37.5248 22.8468C39.3114 24.2217 40 26.5087 40 28.763Z" fill="white"/>
</svg>
