<svg width="40" height="40" viewBox="0 0 40 40" fill="none" xmlns="http://www.w3.org/2000/svg">
<path d="M7.14558 36.721C7.39637 38.1433 9.4345 38.1505 10.4222 37.9764C11.4099 37.8022 13.3227 37.0983 13.0719 35.676C12.8211 34.2537 10.7829 34.2464 9.79523 34.4206C8.80752 34.5947 6.89479 35.2986 7.14558 36.721Z" fill="white" stroke="white" stroke-width="2"/>
<path d="M23.9456 31.9209C24.1966 33.3447 26.2368 33.352 27.2256 33.1776C28.2143 33.0033 30.129 32.2987 29.8779 30.8749C29.6269 29.4511 27.5867 29.4439 26.5979 29.6182C25.6092 29.7926 23.6945 30.4972 23.9456 31.9209Z" fill="white" stroke="white" stroke-width="2"/>
<path d="M29.9 31.1984V2L13.1 5.6V36" stroke="white" stroke-width="2"/>
<path d="M13.1 7.99999L29.9 4.39999" stroke="white" stroke-width="3"/>
</svg>
