<svg width="40" height="39" viewBox="0 0 40 39" fill="none" xmlns="http://www.w3.org/2000/svg">
<path d="M1 38V32.9545C1 30.6285 1.84323 28.4703 3.57432 27.2476C5.66207 25.773 8.08645 24.5867 10.2747 23.9615C11.6987 23.5547 13.0935 22.5563 14.1184 21.502C14.6382 20.9674 15.092 20.389 15.4223 19.8184C15.7397 19.27 16 18.6313 16 18C16 17.5703 15.8422 17.1929 15.681 16.9024C15.516 16.6051 15.2975 16.3121 15.0755 16.0365C14.8894 15.8056 14.6773 15.5588 14.4635 15.3099C14.4208 15.2602 14.3781 15.2105 14.3354 15.1607C14.0737 14.8554 13.8044 14.5372 13.5375 14.1962C12.4709 12.8333 11.5 11.1752 11.5 9C11.5 4.58752 15.0164 1 20 1C24.9836 1 28.5 4.58752 28.5 9C28.5 11.1752 27.5291 12.8333 26.4625 14.1962C26.1956 14.5372 25.9263 14.8554 25.6646 15.1607C25.6219 15.2105 25.5792 15.2603 25.5365 15.31C25.3227 15.5588 25.1106 15.8056 24.9245 16.0365C24.7025 16.3121 24.484 16.6051 24.319 16.9024C24.1578 17.1929 24 17.5703 24 18C24 19.0484 24.5251 20.3299 25.457 21.4256C26.4122 22.5488 27.8494 23.5465 29.7831 23.9762C32.651 24.6135 35.0057 25.8168 36.8565 27.2916C38.3312 28.4666 39 30.4325 39 32.5504V38H1Z" stroke="white" stroke-width="2"/>
</svg>
