<svg width="40" height="40" viewBox="0 0 40 40" fill="none" xmlns="http://www.w3.org/2000/svg">
<path d="M39 33.5504V39H1V33.9545C1 31.6285 1.84323 29.4703 3.57432 28.2476C5.66207 26.773 8.08645 25.5867 10.2747 24.9615C11.6987 24.5547 13.0935 23.5563 14.1184 22.502C14.6382 21.9674 15.092 21.389 15.4223 20.8184C15.7397 20.27 16 19.6313 16 19C16 18.5703 15.8422 18.1929 15.681 17.9024C15.516 17.6051 15.2975 17.3121 15.0755 17.0365C14.8894 16.8056 14.6773 16.5588 14.4635 16.3099C14.4208 16.2602 14.3781 16.2105 14.3354 16.1607C14.0737 15.8554 13.8044 15.5372 13.5375 15.1962C12.4709 13.8333 11.5 12.1752 11.5 10C11.5 5.58752 15.0164 2 20 2C24.9836 2 28.5 5.58752 28.5 10C28.5 12.1752 27.5291 13.8333 26.4625 15.1962C26.1956 15.5372 25.9263 15.8554 25.6646 16.1607C25.6219 16.2105 25.5792 16.2603 25.5365 16.31C25.3227 16.5588 25.1106 16.8056 24.9245 17.0365C24.7025 17.3121 24.484 17.6051 24.319 17.9024C24.1578 18.1929 24 18.5703 24 19C24 20.0484 24.5251 21.3299 25.457 22.4256C26.4122 23.5488 27.8494 24.5465 29.7831 24.9762C32.651 25.6135 35.0057 26.8168 36.8565 28.2916C38.3312 29.4666 39 31.4325 39 33.5504Z" stroke="white" stroke-width="2"/>
</svg>
