<svg width="480" height="608" viewBox="0 0 480 608" fill="none" xmlns="http://www.w3.org/2000/svg">
<mask id="mask0_566_747" style="mask-type:alpha" maskUnits="userSpaceOnUse" x="-3" y="0" width="490" height="620">
<path d="M274.653 611.449V323.437H481.561V382.812H340.366V441.3H455.808V487.382H340.366V551.188H486.001V611.449H274.653Z" fill="#0000FF"/>
<path d="M124.565 619.643C52.8097 619.643 -1.22826 581.129 -3 528.892L73.1847 512.955C74.9565 540.844 94.8885 561.208 128.109 561.208C149.812 561.208 170.63 552.354 170.63 532.876C170.63 477.982 9.40217 488.607 9.40217 400.069C9.40217 354.029 51.9239 321.27 115.706 321.27C180.818 321.27 229.098 354.029 234.413 400.069L160.886 417.777C159.114 394.314 139.625 377.935 113.935 377.935C92.2309 377.935 76.7282 389.887 76.7282 406.267C76.7282 458.504 241.5 442.567 241.5 534.647C241.5 584.67 193.22 619.643 124.565 619.643Z" fill="#0000FF"/>
<path d="M274.653 288.212V0.199707H481.561V59.5746H340.366V118.063H455.808V164.145H340.366V227.951H486.001V288.212H274.653Z" fill="#0000FF"/>
<path d="M-0.927734 288.212V0.199707H145.242C198.273 0.199707 236.152 38.306 236.152 92.3637C236.152 129.584 216.544 159.271 184.904 173.893L241.5 288.212H163.068L124.743 183.642H65.0269V288.212H-0.927734ZM65.0269 137.56H128.308C150.59 137.56 166.633 121.608 166.633 98.5671C166.633 75.5261 151.481 59.5746 130.09 59.5746H65.0269V137.56Z" fill="#0000FF"/>
</mask>
<g mask="url(#mask0_566_747)">
<rect x="1" width="479" height="608" fill="#0000FF"/>
</g>
</svg>
