<svg width="1440" height="322" viewBox="0 0 1440 322" fill="none" xmlns="http://www.w3.org/2000/svg">
<mask id="mask0_539_757" style="mask-type:alpha" maskUnits="userSpaceOnUse" x="-8" y="0" width="1457" height="351">
<path d="M1278.34 350.04C1179.44 350.04 1107.69 276.347 1107.69 175.02C1107.69 73.6926 1179.44 0 1278.34 0C1377.25 0 1449 73.6926 1449 175.02C1449 276.347 1377.25 350.04 1278.34 350.04ZM1158.11 174.535C1158.11 249.682 1208.05 302.527 1278.34 302.527C1348.64 302.527 1398.58 249.682 1398.58 174.535C1398.58 99.388 1348.64 46.5426 1278.34 46.5426C1208.05 46.5426 1158.11 99.388 1158.11 174.535ZM1182.83 175.505C1182.83 115.872 1222.59 72.7229 1279.8 72.7229C1324.4 72.7229 1360.76 99.388 1370.94 141.567L1313.74 158.051C1310.34 143.022 1296.28 131.871 1280.77 131.871C1260.41 131.871 1245.86 149.324 1245.86 173.565C1245.86 199.261 1260.89 218.169 1281.74 218.169C1298.71 218.169 1312.77 206.048 1314.71 189.08L1373.85 205.563C1364.64 250.652 1326.83 278.286 1280.77 278.286C1223.07 278.286 1182.83 235.137 1182.83 175.505Z" fill="#0000FF"/>
<path d="M849.903 322.89V7.75708H1075.83V72.7229H921.657V136.719H1047.71V187.14H921.657V256.954H1080.68V322.89H849.903Z" fill="#0000FF"/>
<path d="M686.178 328.708C607.637 328.708 548.489 286.528 546.55 229.32L629.939 211.866C631.878 242.41 653.695 264.711 690.056 264.711C713.813 264.711 736.599 255.015 736.599 233.683C736.599 173.565 560.125 185.201 560.125 88.2371C560.125 37.8159 606.667 1.93921 676.481 1.93921C747.75 1.93921 800.595 37.8159 806.413 88.2371L725.933 107.63C723.994 81.9345 702.662 63.9961 674.542 63.9961C650.786 63.9961 633.817 77.0862 633.817 95.0246C633.817 152.233 814.17 134.78 814.17 235.622C814.17 290.407 761.325 328.708 686.178 328.708Z" fill="#0000FF"/>
<path d="M292.645 322.89V7.75708H518.571V72.7229H364.398V136.719H490.451V187.14H364.398V256.954H523.419V322.89H292.645Z" fill="#0000FF"/>
<path d="M-8 322.89V7.75708H151.021C208.714 7.75708 249.924 49.4516 249.924 108.6C249.924 149.324 228.592 181.807 194.17 197.806L255.742 322.89H170.414L128.719 208.472H63.7533V322.89H-8ZM63.7533 158.051H132.598C156.839 158.051 174.292 140.598 174.292 115.387C174.292 90.1764 157.808 72.7229 134.537 72.7229H63.7533V158.051Z" fill="#0000FF"/>
</mask>
<g mask="url(#mask0_539_757)">
<path d="M-2 0H1438V323H-2V0Z" fill="#0000FF"/>
</g>
</svg>
